# xmcd
#
# Track frame offsets:
#	150
#	9720
#	19628
#	31553
#	42316
#	50281
#	60601
#	70389
#	82502
#	94075
#	101793
#	113313
#
# Disc length: 1657 seconds
#
# Revision: 1
# Processed by: cddbd v1.5.2PL0 Copyright (c) Steve Scherf et al.
# Submitted via: audiograbber 1.83.01
#
DISCID=8206770c
DTITLE=Johnny Cash - Sings The Songs That Made Him Famous
DYEAR=1958
DGENRE=Country
TTITLE0=Ballad Of A Teen-Age Queen
TTITLE1=There You Go
TTITLE2=I Walk The Line
TTITLE3=Don't Make Me Go
TTITLE4=Guess Things Happen That Way
TTITLE5=Train Of Love
TTITLE6=The Ways Of A Woman In Love
TTITLE7=Next In LIne
TTITLE8=You're The Nearest Thing To Heaven
TTITLE9=I Can't Help It
TTITLE10=Home Of The Blues
TTITLE11=Big River
EXTD=
EXTT0=
EXTT1=
EXTT2=
EXTT3=
EXTT4=
EXTT5=
EXTT6=
EXTT7=
EXTT8=
EXTT9=
EXTT10=
EXTT11=
PLAYORDER=
